{"title":"Creature 3D (2014) upscaled 720p DVDRip x.264 AC3 5.1 E.Sub Team","uid":11227628,"size":2369977377,"categoryP":"video","categoryS":"3d","magnet":"?xt=urn:btih:63cf221870bfdd4d46b55deaf3d18e06f4a5d5e3&amp;dn=Creature+3D+%282014%29+upscaled+720p+DVDRip+x.264+AC3+5.1+E.Sub+Team&amp;tr=udp%3A%2F%2Ftracker.openbittorrent.com%3A80&amp;tr=udp%3A%2F%2Fopen.demonii.com%3A1337&amp;tr=udp%3A%2F%2Ftracker.coppersurfer.tk%3A6969&amp;tr=udp%3A%2F%2Fexodus.desync.com%3A6969","seeders":10,"leechers":1,"uploader":"inovai","files":19,"time":1413473889,"description":"Creature 3D (2014) upscaled 720p DVDRip x.264 AC3 5.1 E.Sub TeamTNT\n\nCover:\n  &lt;a href=&quot;\nhttp://forum.primetimeshow.in/viewtopic.php?f=7&amp;t=671&quot; rel=&quot;nofollow&quot; target=&quot;_NEW&quot;&gt;\nhttp://forum.primetimeshow.in/viewtopic.php?f=7&amp;t=671&lt;/a&gt;\n\nScreenshots:\n &lt;a href=&quot;\nhttp://m.primetimeshow.in/share-BC73_543FC9B4.html&quot; rel=&quot;nofollow&quot; target=&quot;_NEW&quot;&gt;\nhttp://m.primetimeshow.in/share-BC73_543FC9B4.html&lt;/a&gt;\n &lt;a href=&quot;\nhttp://m.primetimeshow.in/share-2DEB_543FC9B4.html&quot; rel=&quot;nofollow&quot; target=&quot;_NEW&quot;&gt;\nhttp://m.primetimeshow.in/share-2DEB_543FC9B4.html&lt;/a&gt;\n &lt;a href=&quot;\nhttp://m.primetimeshow.in/share-AE19_543FC9B4.html&quot; rel=&quot;nofollow&quot; target=&quot;_NEW&quot;&gt;\nhttp://m.primetimeshow.in/share-AE19_543FC9B4.html&lt;/a&gt;\n &lt;a href=&quot;\nhttp://m.primetimeshow.in/share-4870_543FC9B4.html&quot; rel=&quot;nofollow&quot; target=&quot;_NEW&quot;&gt;\nhttp://m.primetimeshow.in/share-4870_543FC9B4.html&lt;/a&gt;\n &lt;a href=&quot;\nhttp://m.primetimeshow.in/share-274A_543FC9B4.html&quot; rel=&quot;nofollow&quot; target=&quot;_NEW&quot;&gt;\nhttp://m.primetimeshow.in/share-274A_543FC9B4.html&lt;/a&gt;\n\nMovie:............Creature 3D \nSource: ..........DVD9 @ TeamTNT \nYear:.............2014\n\nGeneral\nComplete name : E:Creature 3D.mkv\nFormat : Matroska\nFormat version : Version 2\nFile size : 2.20 GiB\nDuration : 2h 17mn\nOverall bit rate : 2 285 Kbps\nEncoded date : UTC 2014-10-15 12:38:21\nWriting application : mkvmerge v7.0.0 ('Where We Going') 32bit built on Jun 9 2014 15:08:34\nWriting library : libebml v1.3.0 + libmatroska v1.4.1\n_STATISTICS_WRITING_APP : mkvmerge v7.0.0 ('Where We Going') 32bit built on Jun 9 2014 15:08:34\n_STATISTICS_WRITING_DATE_UTC : 2014-10-15 12:38:21\n_STATISTICS_TAGS : BPS DURATION NUMBER_OF_FRAMES NUMBER_OF_BYTES\nDURATION : 02:06:13.657000000\nNUMBER_OF_FRAMES : 1327\nNUMBER_OF_BYTES : 1095615\n\nVideo\nID : 1\nFormat : AVC\nFormat/Info : Advanced Video Codec\nFormat profile : &lt;a class=&quot;__cf_email__&quot; href=&quot;/cdn-cgi/l/email-protection&quot; data-cfemail=&quot;b4fcddd3dcf4f8819a84&quot;&gt;[email&amp;#160;protected]&lt;/a&gt;&lt;script cf-hash='f9e31' type=&quot;text/javascript&quot;&gt;\n/* &lt;![CDATA[ */!function(){try{var t=&quot;currentScript&quot;in document?document.currentScript:function(){for(var t=document.getElementsByTagName(&quot;script&quot;),e=t.length;e--;)if(t[e].getAttribute(&quot;cf-hash&quot;))return t[e]}();if(t&amp;&amp;t.previousSibling){var e,r,n,i,c=t.previousSibling,a=c.getAttribute(&quot;data-cfemail&quot;);if(a){for(e=&quot;&quot;,r=parseInt(a.substr(0,2),16),n=2;a.length-n;n+=2)i=parseInt(a.substr(n,2),16)^r,e+=String.fromCharCode(i);e=document.createTextNode(e),c.parentNode.replaceChild(e,c)}}}catch(u){}}();/* ]]&gt; */&lt;/script&gt;\nFormat settings, CABAC : Yes\nFormat settings, ReFrames : 16 frames\nCodec ID : V_MPEG4/ISO/AVC\nDuration : 2h 17mn\nBit rate : 1 834 Kbps\nWidth : 1 280 pixels\nHeight : 544 pixels\nDisplay aspect ratio : 2.35:1\nFrame rate : 29.970 fps\nColor space : YUV\nChroma subsampling : 4:2:0\nBit depth : 8 bits\nScan type : Progressive\nBits/(Pixel*Frame) : 0.088\nStream size : 1.72 GiB (78%)\n\nAudio\nID : 2\nFormat : AC-3\nFormat/Info : Audio Coding 3\nMode extension : CM (complete main)\nCodec ID : A_AC3\nDuration : 2h 17mn\nBit rate mode : Constant\nBit rate : 448 Kbps\nChannel(s) : 6 channels\nChannel positions : Front: L C R, Side: L R, LFE\nSampling rate : 48.0 KHz\nBit depth : 16 bits\nCompression mode : Lossy\nStream size : 441 MiB (20%)\n\nText\nID : 3\nFormat : VobSub\nMuxing mode : zlib\nCodec ID : S_VOBSUB\nCodec ID/Info : The same subtitle format used on DVDs\nLanguage : English\n\n\nThanks to TeamTNT!!\n\nSeed n ENjoy!!","torrent":{"xt":"urn:btih:63cf221870bfdd4d46b55deaf3d18e06f4a5d5e3","amp;dn":"Creature+3D+%282014%29+upscaled+720p+DVDRip+x.264+AC3+5.1+E.Sub+Team","amp;tr":["udp%3A%2F%2Ftracker.openbittorrent.com%3A80","udp%3A%2F%2Fopen.demonii.com%3A1337","udp%3A%2F%2Ftracker.coppersurfer.tk%3A6969","udp%3A%2F%2Fexodus.desync.com%3A6969"],"infoHash":"63cf221870bfdd4d46b55deaf3d18e06f4a5d5e3","infoHashBuffer":{"type":"Buffer","data":[99,207,34,24,112,191,221,77,70,181,93,234,243,209,142,6,244,165,213,227]},"announce":[],"urlList":[]}}